<svg xmlns="http://www.w3.org/2000/svg" viewBox="0 0 474 474"><defs><style>.cls-1{fill:#d6bd78;}</style></defs><g id="Calque_2" data-name="Calque 2"><g id="Calque_2_-_copie" data-name="Calque 2 - copie"><circle id="mid_mid" data-name="mid mid" class="cls-1" cx="237.17" cy="237.5" r="32"/><g id="mid"><path class="cls-1" d="M237,30a207.07,207.07,0,0,1,80.56,397.75A207.06,207.06,0,0,1,156.44,46.25,205.75,205.75,0,0,1,237,30m0-30C106.11,0,0,106.11,0,237S106.11,474,237,474,474,367.89,474,237,367.89,0,237,0Z"/></g><path class="cls-1" d="M55,259a162,162,0,0,1,115.26,47.74A162,162,0,0,1,218,422a165.24,165.24,0,0,1-1.34,21A206.84,206.84,0,0,1,31.33,260.7,165.3,165.3,0,0,1,55,259m0-30A193.13,193.13,0,0,0,0,237V237C0,367.89,106.11,474,237,474c1.31,0,2.62,0,3.92,0A192.79,192.79,0,0,0,248,422c0-106.59-86.41-193-193-193Z"/><path class="cls-1" d="M419,257a166.38,166.38,0,0,1,25.86,2A208.82,208.82,0,0,1,255.61,445.19,167.32,167.32,0,0,1,254,422,165,165,0,0,1,419,257m0-28c-106.59,0-193,86.41-193,193a192.79,192.79,0,0,0,7.08,52c1.3,0,2.61,0,3.92,0,130.89,0,237-106.11,237-237V237A193.13,193.13,0,0,0,419,229Z"/><path class="cls-1" d="M255.91,28.84A208.82,208.82,0,0,1,445.06,217,166.43,166.43,0,0,1,419,219a163.89,163.89,0,0,1-116.67-48.33A163.89,163.89,0,0,1,254,54a166.14,166.14,0,0,1,1.91-25.16M237,0c-1.12,0-2.24,0-3.35,0A193.06,193.06,0,0,0,226,54c0,106.59,86.41,193,193,193a193.06,193.06,0,0,0,55-7.95c0-.68,0-1.36,0-2.05C474,106.11,367.89,0,237,0Z"/><path class="cls-1" d="M218.09,28.84A166.14,166.14,0,0,1,220,54a163.89,163.89,0,0,1-48.33,116.67A163.89,163.89,0,0,1,55,219,166.43,166.43,0,0,1,28.94,217,208.81,208.81,0,0,1,218.09,28.84M237,0C106.11,0,0,106.11,0,237c0,.69,0,1.37,0,2.05A193.06,193.06,0,0,0,55,247c106.59,0,193-86.41,193-193a193.06,193.06,0,0,0-7.65-54c-1.11,0-2.23,0-3.35,0Z"/></g></g></svg>